<?xml version="1.0" encoding="UTF-8"?>
<svg width="12px" height="7px" viewBox="0 0 12 7" version="1.1" xmlns="http://www.w3.org/2000/svg" xmlns:xlink="http://www.w3.org/1999/xlink">
    <title>icon/ç®­å¤´/down</title>
    <defs>
        <path d="M5.91731999,6.26796681 C5.81458862,6.24417805 5.71705148,6.19225524 5.6369946,6.11219836 L0.962233104,1.43743687 C0.734427267,1.20963103 0.734427267,0.840284793 0.962233104,0.612478956 C1.19003894,0.384673119 1.55938518,0.384673119 1.78719102,0.612478956 L6.05122755,4.87651549 L10.3145984,0.613144625 C10.5424043,0.385338788 10.9117505,0.385338788 11.1395563,0.613144625 C11.3673622,0.840950461 11.3673622,1.2102967 11.1395563,1.43810254 L6.46479483,6.11286403 C6.3163072,6.26135167 6.10768401,6.31305259 5.91731999,6.26796681 L5.91731999,6.26796681 Z" id="path-1"></path>
    </defs>
    <g id="æ ¸æŸ¥" stroke="none" stroke-width="1" fill="none" fill-rule="evenodd">
        <g id="02-03-1æ ¸æŸ¥_å…œåº•å›¾" transform="translate(-92.000000, -57.000000)">
            <g id="æœç´¢-/-è‡ªå®šä¹‰æ ·å¼-/-å¯é€‰é¡¹åˆå§‹çŠ¶æ€" transform="translate(0.000000, 34.000000)">
                <g id="ç¼–ç»„-7" transform="translate(16.000000, 17.000000)">
                    <g id="ç¼–ç»„" transform="translate(76.000000, 6.000000)">
                        <mask id="mask-2" fill="white">
                            <use xlink:href="#path-1"></use>
                        </mask>
                        <g id="arrow-down"></g>
                        <g id="ðŸŽ¨-color" mask="url(#mask-2)" fill="#969799">
                            <g transform="translate(-1.000000, -4.000000)" id="çŸ©å½¢">
                                <rect x="0" y="0" width="14" height="14"></rect>
                            </g>
                        </g>
                    </g>
                </g>
            </g>
        </g>
    </g>
</svg>