<?xml version="1.0" encoding="UTF-8"?>
<svg width="14px" height="14px" viewBox="0 0 14 14" version="1.1" xmlns="http://www.w3.org/2000/svg" xmlns:xlink="http://www.w3.org/1999/xlink">
    <title>icon/interface/首页/outline</title>
    <defs>
        <path d="M7.01366666,0.218902099 L11.9023333,3.72773543 C12.3820728,4.07206007 12.6666667,4.62638588 12.6666667,5.2169021 L12.6666667,10.8752354 C12.6666667,11.8877354 11.8458333,12.7085688 10.8333333,12.7085688 L1.83333333,12.7085688 C0.820833328,12.7085688 0,11.8877354 0,10.8752354 L0,5.21706876 C0,4.62649374 0.284546099,4.07209435 0.764333328,3.72773543 L5.653,0.218902099 C6.05960001,-0.0729673663 6.60706664,-0.0729673663 7.01366666,0.218902099 Z M6.23616666,1.03123543 L1.3475,4.54023543 C1.12937755,4.69658536 1,4.94860116 1,5.21706876 L1,10.8752354 C1,11.3354727 1.37309604,11.7085688 1.83333333,11.7085688 L10.8333333,11.7085688 C11.2935706,11.7085688 11.6666667,11.3354727 11.6666667,10.8752354 L11.6666667,5.21706876 C11.6666667,4.94860116 11.5372891,4.69658536 11.3191667,4.54006876 L6.4305,1.03123543 C6.37242447,0.989562569 6.29424219,0.989562569 6.23616666,1.03123543 Z M8.83333333,9.37523543 C9.1094757,9.37523543 9.33333333,9.59909305 9.33333333,9.87523543 C9.33333333,10.1206953 9.15645817,10.3248438 8.92320896,10.3671798 L8.83333333,10.3752354 L3.83333333,10.3752354 C3.55719095,10.3752354 3.33333333,10.1513778 3.33333333,9.87523543 C3.33333333,9.62977554 3.51020849,9.42562706 3.7434577,9.3832911 L3.83333333,9.37523543 L8.83333333,9.37523543 Z" id="path-1"></path>
    </defs>
    <g id="其他" stroke="none" stroke-width="1" fill="none" fill-rule="evenodd">
        <g id="icon" transform="translate(-15.000000, -45.000000)">
            <g id="编组" transform="translate(14.000000, 44.000000)">
                <g id="填充色/中性色-B7" transform="translate(1.666667, 1.624765)">
                    <mask id="mask-2" fill="white">
                        <use xlink:href="#path-1"></use>
                    </mask>
                    <use id="蒙版" fill="#000000" fill-rule="nonzero" xlink:href="#path-1"></use>
                    <g id="编组" mask="url(#mask-2)">
                        <g transform="translate(-1.666667, -1.624765)" id="填充色/中性色-B7">
                            <rect id="矩形" fill="#969799" x="0" y="0" width="16" height="16"></rect>
                        </g>
                    </g>
                </g>
            </g>
        </g>
    </g>
</svg>