<?xml version="1.0" encoding="UTF-8"?>
<svg width="20px" height="20px" viewBox="0 0 20 20" version="1.1" xmlns="http://www.w3.org/2000/svg" xmlns:xlink="http://www.w3.org/1999/xlink">
    <title>消息通知</title>
    <g id="首页" stroke="none" stroke-width="1" fill="none" fill-rule="evenodd">
        <g id="1-0首页" transform="translate(-331.000000, -44.000000)" fill="#FFFFFF" fill-rule="nonzero">
            <g id="消息通知" transform="translate(331.000000, 44.000000)">
                <rect id="矩形" opacity="0" x="0" y="0" width="20" height="20"></rect>
                <path d="M17.96875,14.4082031 L16.4382812,14.4082031 L16.4382812,9.53554687 C16.4382812,5.96132812 14.2042969,2.99257813 11.2453125,2.32851563 L11.2453125,2.30625 C11.2453125,1.61589406 10.6856684,1.05625 9.9953125,1.05625 C9.30495656,1.05625 8.7453125,1.61589406 8.7453125,2.30625 L8.7453125,2.32851563 C5.78632812,2.99257813 3.55234375,5.96132812 3.55234375,9.53554687 L3.55234375,14.4082031 L2.03125,14.4082031 C1.59977754,14.4082031 1.25,14.7579807 1.25,15.1894531 C1.25,15.6209256 1.59977754,15.9707031 2.03125,15.9707031 L6.87871094,15.9707031 C6.95991199,17.6354293 8.33329464,18.9434547 10,18.9434547 C11.6667054,18.9434547 13.040088,17.6354293 13.1212891,15.9707031 L17.96875,15.9707031 C18.4002225,15.9707031 18.75,15.6209256 18.75,15.1894531 C18.75,14.7579807 18.4002225,14.4082031 17.96875,14.4082031 Z M10,17.38125 C9.19591439,17.38125 8.5231192,16.7709774 8.44492187,15.9707031 L11.5550781,15.9707031 C11.4768808,16.7709774 10.8040856,17.38125 10,17.38125 L10,17.38125 Z M14.8757812,14.4082031 L5.1171875,14.4082031 L5.1171875,9.53378906 C5.1171875,6.39277344 7.30097656,3.84765625 9.99589844,3.84765625 C12.6908203,3.84765625 14.8757812,6.39277344 14.8757812,9.53378906 L14.8757812,14.4082031 Z" id="形状"></path>
            </g>
        </g>
    </g>
</svg>