<?xml version="1.0" encoding="UTF-8"?>
<svg width="32px" height="32px" viewBox="0 0 32 32" version="1.1" xmlns="http://www.w3.org/2000/svg" xmlns:xlink="http://www.w3.org/1999/xlink">
    <title>生态河道数量</title>
    <defs>
        <linearGradient x1="0%" y1="0.237153663%" x2="100%" y2="99.7628463%" id="linearGradient-1">
            <stop stop-color="#01D26D" offset="0%"></stop>
            <stop stop-color="#28B172" offset="100%"></stop>
        </linearGradient>
        <path d="M3.63448438,12.27325 C2.85951563,12.27325 2.23128125,11.6450156 2.23128125,10.8700469 L2.23128125,6.1926875 C2.23128125,5.41771875 2.85951563,4.78948437 3.63448438,4.78948437 C4.40945312,4.78948437 5.0376875,5.41771875 5.0376875,6.1926875 L5.0376875,10.8700469 C5.0376875,11.6450156 4.40945313,12.27325 3.63448438,12.27325 Z M8.00001562,12.27325 C7.22504688,12.27325 6.5968125,11.6450156 6.5968125,10.8700469 L6.5968125,3.38628125 C6.5968125,2.6113125 7.22504688,1.98307812 8.00001562,1.98307812 C8.77498437,1.98307812 9.40321875,2.6113125 9.40321875,3.38628125 L9.40321875,10.8700469 C9.40321875,11.6450156 8.77498438,12.27325 8.00001562,12.27325 Z M12.3655313,12.27325 C11.5905625,12.27325 10.9623281,11.6450156 10.9623281,10.8700469 L10.9623281,8.99910937 C10.9623281,8.22414062 11.5905625,7.59590625 12.3655313,7.59590625 C13.1405,7.59590625 13.7687344,8.22414062 13.7687344,8.99910937 L13.7687344,10.8700469 C13.7687344,11.6450156 13.1405,12.27325 12.3655313,12.27325 Z M13.7687344,14.0169219 L2.23126562,14.0169219 C2.08628125,14.0169219 1.96875,13.8994062 1.96875,13.7544062 C1.96875,13.6094219 2.08626562,13.4918906 2.23126562,13.4918906 L13.7687187,13.4918906 C13.9137031,13.4918906 14.0312344,13.6094062 14.0312344,13.7544062 C14.0312344,13.8994062 13.9137188,14.0169219 13.7687344,14.0169219 L13.7687344,14.0169219 Z" id="path-2"></path>
        <filter x="-53.9%" y="-45.7%" width="207.8%" height="208.0%" filterUnits="objectBoundingBox" id="filter-3">
            <feOffset dx="0" dy="1" in="SourceAlpha" result="shadowOffsetOuter1"></feOffset>
            <feGaussianBlur stdDeviation="2" in="shadowOffsetOuter1" result="shadowBlurOuter1"></feGaussianBlur>
            <feColorMatrix values="0 0 0 0 0.140708775   0 0 0 0 0.77918365   0 0 0 0 0.471063934  0 0 0 0.78071989 0" type="matrix" in="shadowBlurOuter1"></feColorMatrix>
        </filter>
    </defs>
    <g id="首页" stroke="none" stroke-width="1" fill="none" fill-rule="evenodd">
        <g id="1-0首页" transform="translate(-211.000000, -228.000000)">
            <g id="生态河道数量" transform="translate(211.000000, 228.000000)">
                <circle id="椭圆形备份" fill="#E9F7F1" cx="16" cy="16" r="16"></circle>
                <g id="排行榜" transform="translate(8.000000, 8.000000)">
                    <rect id="矩形" fill="#000000" fill-rule="nonzero" opacity="0" x="0" y="0" width="16" height="16"></rect>
                    <rect id="矩形" fill="#000000" fill-rule="nonzero" opacity="0" x="0" y="0" width="16" height="16"></rect>
                    <g id="形状">
                        <use fill="black" fill-opacity="1" filter="url(#filter-3)" xlink:href="#path-2"></use>
                        <use fill="url(#linearGradient-1)" fill-rule="evenodd" xlink:href="#path-2"></use>
                    </g>
                </g>
            </g>
        </g>
    </g>
</svg>