<?xml version="1.0" encoding="UTF-8"?>
<svg width="16px" height="16px" viewBox="0 0 16 16" version="1.1" xmlns="http://www.w3.org/2000/svg" xmlns:xlink="http://www.w3.org/1999/xlink">
    <title>登录_clear</title>
    <g id="闪屏/登录" stroke="none" stroke-width="1" fill="none" fill-rule="evenodd">
        <g id="0-2-sign-in-输入" transform="translate(-319.000000, -293.000000)">
            <g id="登录_clear" transform="translate(319.000000, 293.000000)">
                <rect id="矩形" x="0" y="0" width="16" height="16"></rect>
                <g id="编组" transform="translate(2.000000, 2.000000)" fill-rule="nonzero">
                    <g id="关-闭">
                        <path d="M0,6 C0,9.31201084 2.68800313,12.000014 6,12.000014 C9.31201084,12.000014 12.000014,9.31201084 12.000014,6 C12.000014,2.68800313 9.31201084,0 6,0 C2.68800313,0 0,2.68800313 0,6 Z" id="路径" fill="#CDCDCD"></path>
                        <path d="M1.33200062,6.00000698 L1.33200062,6.00022998 C1.33074351,8.57691657 3.41853902,10.6667588 5.99522561,10.6680133 C5.99689272,10.6680133 5.99855983,10.6680133 6.00022695,10.6680133 L6.00022689,10.6680133 C8.57691348,10.6692705 10.6667558,8.58147493 10.6680102,6.00478834 C10.6680102,6.00319564 10.6680102,6.00160293 10.6680102,6.00001024 L10.6680102,5.99978759 C10.6692678,3.423101 8.58147208,1.33325872 6.00478549,1.33200426 C6.00311835,1.33200426 6.00145123,1.33200426 5.9997841,1.33200426 L5.99978395,1.33200426 C3.42309736,1.33074702 1.33325508,3.41854264 1.33200062,5.99522923 C1.33200062,5.99682205 1.33200062,5.99841487 1.33200062,6.00000769 L1.33200062,6.00000698 Z" id="路径" fill="#CDCDCD"></path>
                        <path d="M8.46600985,3.64200424 L8.46600985,3.64200423 C8.59197952,3.77489618 8.59197952,3.98311283 8.46600986,4.11600478 L4.22400492,8.35800972 L4.22400493,8.35800971 C4.09111298,8.48397939 3.88289633,8.48397939 3.75000438,8.35800973 L3.75000437,8.35800971 C3.62403469,8.22511776 3.62403469,8.01690111 3.7500044,7.88400916 L7.99200933,3.64200423 L7.99200934,3.64200421 C8.12490129,3.51603454 8.33311794,3.51603454 8.46600989,3.64200424 L8.46600985,3.64200424 Z" id="路径" fill="#FFFFFF"></path>
                        <path d="M3.75600437,3.64200424 L3.75600438,3.64200423 C3.88889633,3.51603455 4.09711298,3.51603455 4.23000493,3.64200425 L8.47200987,7.88400919 L8.47200986,7.88400918 C8.59797954,8.01690113 8.59797954,8.22511778 8.47200988,8.35800973 L8.47200989,8.35800972 C8.33911794,8.4839794 8.13090129,8.4839794 7.99800934,8.35800974 L3.7560044,4.1160048 L3.75600439,4.11600479 C3.63003471,3.98311284 3.63003471,3.77489619 3.75600441,3.64200424 L3.75600437,3.64200424 Z" id="路径" fill="#FFFFFF"></path>
                    </g>
                </g>
            </g>
        </g>
    </g>
</svg>