<?xml version="1.0" encoding="UTF-8"?>
<svg width="12px" height="12px" viewBox="0 0 12 12" version="1.1" xmlns="http://www.w3.org/2000/svg" xmlns:xlink="http://www.w3.org/1999/xlink">
    <title>icon/display/outline</title>
    <g id="核查" stroke="none" stroke-width="1" fill="none" fill-rule="evenodd">
        <g id="02-01核查_正常" transform="translate(-24.000000, -571.000000)" fill-rule="nonzero">
            <g id="编组" transform="translate(24.000000, 571.000000)">
                <rect id="矩形" fill="#000000" opacity="0" x="0" y="0" width="12" height="12"></rect>
                <path d="M10.8160547,8.41511719 L8.91035156,6.50976562 L10.8574219,4.56269531 L10.8575391,4.56269531 C11.334375,4.08539062 11.334375,3.30925781 10.8574219,2.83195312 L9.17074219,1.14515625 C8.93953125,0.913945312 8.63226563,0.7865625 8.3053125,0.7865625 C7.97847656,0.7865625 7.67109375,0.913945312 7.44011719,1.14515625 L5.49292969,3.09222656 L3.77121094,1.37039062 C3.45046875,1.04976562 3.02414063,0.873046875 2.570625,0.873046875 C2.11710938,0.873046875 1.69078125,1.04976562 1.37015625,1.37039062 C1.04941406,1.69101562 0.872695313,2.11757812 0.872695313,2.57097656 C0.872695313,3.024375 1.04941406,3.45070312 1.37015625,3.77132812 L3.091875,5.49316406 L1.1446875,7.44035156 C0.667851563,7.91765625 0.667851563,8.69378906 1.14480469,9.17109375 L2.83160156,10.8578906 C3.0628125,11.0891016 3.37007813,11.2164844 3.69691406,11.2164844 C4.02386719,11.2164844 4.33125,11.0891016 4.56222656,10.8578906 L6.50941406,8.91070312 L8.416875,10.8185156 L10.5270703,11.0714062 C10.5472266,11.0735156 10.5672656,11.0749219 10.5871875,11.0749219 C10.723125,11.0749219 10.8525,11.0210156 10.9492969,10.9225781 C11.0603906,10.8098437 11.1121875,10.6553906 11.0913281,10.4984766 L10.8160547,8.41511719 Z M1.95878906,3.18269531 C1.7953125,3.01921875 1.7053125,2.80195312 1.7053125,2.57097656 C1.7053125,2.33976562 1.79542969,2.1225 1.95902344,1.95902344 C2.285625,1.6321875 2.855625,1.6321875 3.18246094,1.95902344 L4.90429687,3.68074219 L3.68050781,4.90464844 L1.95878906,3.18269531 L1.95878906,3.18269531 Z M3.97347656,10.2691406 C3.82582031,10.4171484 3.568125,10.4171484 3.42023438,10.2691406 L1.73355469,8.58234375 C1.58097656,8.42976562 1.58097656,8.1815625 1.7334375,8.02898437 L3.04863281,6.71390625 C3.06785156,6.77695312 3.09714844,6.83730469 3.14695313,6.88722656 L3.87925781,7.61953125 C4.04179688,7.78207031 4.30535156,7.78207031 4.46800781,7.61953125 C4.63054688,7.456875 4.63054688,7.19332031 4.46800781,7.03078125 L3.73570313,6.29847656 C3.68578125,6.24855469 3.62542969,6.219375 3.56238281,6.20015625 L4.62421875,5.1384375 C4.6434375,5.20148437 4.67273438,5.26183594 4.72253906,5.31164062 L5.86453125,6.45375 C6.02707031,6.61628906 6.290625,6.61628906 6.45328125,6.45375 C6.61582031,6.29121094 6.61582031,6.02765625 6.45328125,5.865 L5.31128906,4.72289062 C5.26148438,4.67308594 5.20113281,4.64378906 5.13808594,4.62457031 L6.19980469,3.56285156 C6.21902344,3.62589844 6.24832031,3.68613281 6.298125,3.73605469 L7.03042969,4.46835937 C7.19296875,4.63089844 7.45652344,4.63089844 7.61917969,4.46835937 C7.78171875,4.30582031 7.78171875,4.04226562 7.61917969,3.87960937 L6.886875,3.14730469 C6.83707031,3.09738281 6.77671875,3.06820312 6.71367188,3.04898437 L8.02886719,1.73390625 C8.10269531,1.65996094 8.20101563,1.61929687 8.3053125,1.61929687 C8.40984375,1.61929687 8.50804688,1.65996094 8.58199219,1.73390625 L10.2687891,3.42070312 C10.4213672,3.57328125 10.4213672,3.82148437 10.2689063,3.9740625 L3.97347656,10.2691406 Z M8.80207031,10.0260937 L7.09804687,8.32195312 L8.32171875,7.09828125 L10.0277344,8.80429687 L10.2116016,10.1948437 L8.80207031,10.0260937 L8.80207031,10.0260937 Z" id="形状" fill="#666666"></path>
            </g>
        </g>
    </g>
</svg>