<?xml version="1.0" encoding="UTF-8"?>
<svg width="10px" height="12px" viewBox="0 0 10 12" version="1.1" xmlns="http://www.w3.org/2000/svg" xmlns:xlink="http://www.w3.org/1999/xlink">
    <title>icon/display/定位-小</title>
    <defs>
        <path d="M1.46425215,8.48503662 C0.527122244,7.55560163 0,6.29041528 0,4.97057322 C0,3.65073117 0.527122244,2.38554482 1.46425215,1.45610983 C3.41681942,-0.485369944 6.5829285,-0.485369944 8.53549576,1.45610983 C9.47277972,2.38556427 10,3.65085809 10,4.97082322 C10,6.29078835 9.47277972,7.55608217 8.53549576,8.48553661 L4.99987396,12 L1.46425215,8.48503662 Z M4.99987396,6.5000573 C5.82832963,6.5000573 6.49992564,5.82849141 6.49992564,5.00007292 C6.49992564,4.17165442 5.82832963,3.50008854 4.99987396,3.50008854 C4.17141829,3.50008854 3.49982227,4.17165442 3.49982227,5.00007292 C3.49982227,5.82849141 4.17141829,6.5000573 4.99987396,6.5000573 Z" id="path-1"></path>
    </defs>
    <g id="闪屏/登录" stroke="none" stroke-width="1" fill="none" fill-rule="evenodd">
        <g id="0-1sign-in" transform="translate(-19.000000, -238.000000)">
            <g id="编组" transform="translate(16.000000, 236.000000)">
                <g id="填充颜色/主色-G7" transform="translate(3.000000, 2.000000)">
                    <mask id="mask-2" fill="white">
                        <use xlink:href="#path-1"></use>
                    </mask>
                    <use id="蒙版" fill="#3D3D3D" fill-rule="nonzero" xlink:href="#path-1"></use>
                    <g id="编组" mask="url(#mask-2)">
                        <g transform="translate(-3.000000, -2.000000)" id="填充颜色/主色-G7">
                            <rect id="矩形" fill="#28B172" x="0" y="0" width="16" height="16"></rect>
                        </g>
                    </g>
                </g>
            </g>
        </g>
    </g>
</svg>