<?xml version="1.0" encoding="UTF-8"?>
<svg width="14px" height="14px" viewBox="0 0 14 14" version="1.1" xmlns="http://www.w3.org/2000/svg" xmlns:xlink="http://www.w3.org/1999/xlink">
    <title>icon/interface/我的/outline</title>
    <defs>
        <path d="M6.75,1.14075 C7.99275,1.14075 9,2.16225 9,3.42262499 C9,4.68262499 7.99275,5.70412499 6.75,5.70412499 C5.50725,5.70412499 4.5,4.68262499 4.5,3.42262499 C4.5,2.162625 5.50725,1.14075 6.75,1.14075 Z M6.75,0 C4.88625,0 3.375,1.53225 3.375,3.42262499 C3.375,5.31262499 4.88625,6.84525 6.75,6.84525 C8.61375,6.84525 10.125,5.31262501 10.125,3.42262499 C10.125,2.51512499 9.7695,1.64437499 9.13649999,1.002375 C8.50734007,0.362130759 7.64763791,0.00103964293 6.75,0 Z M11.25,8.93662501 C11.871375,8.93662501 12.375,9.447375 12.375,10.077375 L12.375,12.35925 L1.125,12.35925 L1.125,10.077375 C1.125,9.447375 1.628625,8.93662501 2.25,8.93662501 L11.25,8.93662501 Z M11.25,7.79587501 L2.25,7.79587501 C1.00725,7.79587501 0,8.81737501 0,10.077375 L0,12.7395 C0,13.1595 0.335625003,13.5 0.750000001,13.5 L12.75,13.5 C13.164375,13.5 13.5,13.1595 13.5,12.7395 L13.5,10.077375 C13.5,8.81737501 12.49275,7.79587501 11.25,7.79587501 Z" id="path-1"></path>
    </defs>
    <g id="其他" stroke="none" stroke-width="1" fill="none" fill-rule="evenodd">
        <g id="icon" transform="translate(-54.000000, -45.000000)">
            <g id="编组" transform="translate(53.000000, 44.000000)">
                <g id="填充色/中性色-B7备份-2" transform="translate(1.000000, 1.000000)">
                    <mask id="mask-2" fill="white">
                        <use xlink:href="#path-1"></use>
                    </mask>
                    <use id="蒙版" fill="#000000" fill-rule="nonzero" xlink:href="#path-1"></use>
                    <g id="编组" mask="url(#mask-2)">
                        <g transform="translate(-1.000000, -1.000000)" id="填充色/中性色-B7">
                            <rect id="矩形" fill="#969799" x="0" y="0" width="16" height="16"></rect>
                        </g>
                    </g>
                </g>
            </g>
        </g>
    </g>
</svg>