<?xml version="1.0" encoding="UTF-8"?>
<svg width="16px" height="16px" viewBox="0 0 16 16" version="1.1" xmlns="http://www.w3.org/2000/svg" xmlns:xlink="http://www.w3.org/1999/xlink">
    <title>icon/interface/定位/outline</title>
    <g id="核查" stroke="none" stroke-width="1" fill="none" fill-rule="evenodd">
        <g id="02-01核查_正常" transform="translate(-335.000000, -559.000000)" fill-rule="nonzero">
            <g id="编组" transform="translate(335.000000, 559.000000)">
                <rect id="矩形" fill="#000000" opacity="0" x="0" y="0" width="16" height="16"></rect>
                <path d="M8.02811952,4.62097247 C6.18160516,4.62097247 4.68189806,6.12380395 4.68189806,7.96719391 C4.68189806,9.81370827 6.18472955,11.3134153 8.02811952,11.3134153 C9.87150948,11.3134153 11.374341,9.81683264 11.374341,7.9703183 C11.374341,6.12380395 9.87150947,4.62097247 8.02811952,4.62097247 Z M8.02811952,10.3604765 C6.70962703,10.3604765 5.63796133,9.28881078 5.63796133,7.9703183 C5.63796133,6.65182581 6.70962702,5.58016012 8.02811952,5.58016012 C9.34661202,5.58016012 10.4182777,6.65182581 10.4182777,7.9703183 C10.4182777,9.28881078 9.346612,10.3604765 8.02811952,10.3604765 Z" id="形状" fill="#333333"></path>
                <path d="M15.4891623,7.50790861 L14.2800234,7.50790861 C14.1675454,5.99882836 13.5270455,4.59597734 12.4460066,3.51493848 C11.3649678,2.43389962 9.96211678,1.79339972 8.45303652,1.68092169 L8.45303652,0.478031641 C8.45303652,0.215582906 8.23745363,0 7.97500488,0 C7.71255613,0 7.49697323,0.215582891 7.49697325,0.478031641 L7.49697325,1.68092169 C5.99101738,1.79339972 4.58504198,2.43389963 3.50400313,3.51493848 C2.42296427,4.59597734 1.78246436,5.99570397 1.66998633,7.50790861 L0.479593828,7.50790861 C0.217145094,7.50790861 0.0015621875,7.7234915 0.0015621875,7.98594025 C0.0015621875,8.248389 0.217145078,8.46397189 0.479593828,8.46397188 L1.66998633,8.46397188 C1.78246436,9.97305213 2.42296427,11.3759031 3.50400313,12.456942 C4.58504198,13.5379809 5.98789298,14.1784808 7.49697325,14.2909588 L7.49697325,15.5219684 C7.49697325,15.7844171 7.71255614,16 7.97500487,16 C8.23745361,16 8.45303652,15.7844171 8.45303652,15.5219684 L8.45303652,14.2909588 C9.95899239,14.1784808 11.3649678,13.5379809 12.4460066,12.456942 C13.5270455,11.3759031 14.1675454,9.97305214 14.2800234,8.46397188 L15.4891623,8.46397188 C15.751611,8.46397188 15.9671939,8.24838898 15.9671939,7.98594025 C15.9671939,7.72036713 15.751611,7.50790861 15.4891623,7.50790861 Z M11.7680141,11.7789494 C10.7557118,12.7912517 9.40597539,13.3505175 7.97500488,13.3505175 C6.54090997,13.3505175 5.19429798,12.7912517 4.1819957,11.7789494 C3.16969342,10.7666471 2.61042766,9.41691075 2.61042766,7.98594025 C2.61042766,6.55496975 3.16969342,5.20523336 4.1819957,4.19293106 C5.19429798,3.18062878 6.54403438,2.62136302 7.97500488,2.62136302 C9.40909978,2.62136302 10.7557118,3.18062878 11.7680141,4.19293106 C12.7803163,5.20523334 13.3395821,6.55496973 13.3395821,7.98594025 C13.3395821,9.41691077 12.7834407,10.7666471 11.7680141,11.7789494 L11.7680141,11.7789494 Z" id="形状" fill="#323233"></path>
            </g>
        </g>
    </g>
</svg>