<?xml version="1.0" encoding="UTF-8"?>
<svg width="14px" height="14px" viewBox="0 0 14 14" version="1.1" xmlns="http://www.w3.org/2000/svg" xmlns:xlink="http://www.w3.org/1999/xlink">
    <title>icon/interface/关闭/fill</title>
    <g id="其他" stroke="none" stroke-width="1" fill="none" fill-rule="evenodd">
        <g id="icon" transform="translate(-15.000000, -70.000000)" fill="#969799" fill-rule="nonzero">
            <g id="编组" transform="translate(14.000000, 69.000000)">
                <rect id="矩形" opacity="0" x="0" y="0" width="16" height="16"></rect>
                <path d="M8,1 C4.14049188,1 1,4.14000806 1,8 C1,11.8599919 4.14000806,15 8,15 C11.8595081,15 15,11.8599919 15,8 C15,4.14000806 11.8599919,1 8,1 Z M10.8555033,10.1560005 C11.050504,10.3519957 11.0499933,10.6680016 10.8545088,10.8630023 C10.7570219,10.9600054 10.6295122,11.0090042 10.5015186,11.0090042 C10.3730144,11.0090042 10.2450208,10.9600054 10.1475071,10.8620078 L7.99750034,8.70549656 L5.84050531,10.8395108 C5.74301842,10.9355194 5.61599248,10.9840075 5.48899342,10.9840075 C5.36000538,10.9840075 5.23150116,10.934498 5.13350356,10.835506 C4.93949738,10.6390001 4.94100255,10.3229942 5.13750841,10.1285042 L7.29200377,7.99750033 L5.1454912,5.84399945 C4.95049053,5.64848809 4.95100122,5.33199837 5.14648569,5.1369977 C5.34199705,4.94148634 5.65797608,4.94250772 5.85348744,5.13799219 L8.00298347,7.29399272 L10.1599785,5.16000534 C10.3559737,4.96551536 10.6729741,4.96750433 10.8669803,5.16401019 C11.0614702,5.36051603 11.0594813,5.67700575 10.8629754,5.87101194 L8.70850692,8.00198898 L10.8555033,10.1560005 Z" id="形状"></path>
            </g>
        </g>
    </g>
</svg>