<?xml version="1.0" encoding="UTF-8"?>
<svg width="12px" height="13px" viewBox="0 0 12 13" version="1.1" xmlns="http://www.w3.org/2000/svg" xmlns:xlink="http://www.w3.org/1999/xlink">
    <title>icon/interface/核查/outline</title>
    <defs>
        <path d="M6.0425,0 C6.30786808,0 6.56238477,0.10143084 6.75,0.282158635 L11.2065,4.57568802 C11.3942327,4.75616439 11.4998108,5.00107667 11.5,5.25652805 L11.5,11.0740028 C11.5,11.584809 11.2892863,12.0746939 10.9142136,12.4358885 C10.5391408,12.797083 10.030433,13 9.5,13 L2,13 C1.46956703,13 0.960859199,12.797083 0.585786441,12.4358885 C0.210713682,12.0746939 0,11.584809 0,11.0740028 L0,1.93081229 C0.00192378223,0.867647492 0.895986896,0.00602020638 2,0.00337053475 L6.0425,0 Z M5.7175,0.962998664 L2.00000001,0.962998664 C1.47668763,0.962839182 1.04174841,1.35124262 1.00250001,1.8537724 L1.00000001,1.9259973 L1.00000001,11.0744842 C1.00009602,11.5782481 1.40335328,11.9968116 1.925,12.0345939 L2.00000001,12.0370014 L9.50000001,12.0370014 C10.0233124,12.0371609 10.4582516,11.6487574 10.4975,11.1462276 L10.5,11.0740028 L10.5,5.57383609 C10.5,5.51079317 10.4937009,5.44789646 10.481,5.38605136 L10.4575,5.2955295 L7.00000001,5.2964925 L6.925,5.29408499 C6.43305397,5.25848321 6.04157282,4.88271406 6.003,4.40908926 L6.00000001,4.33301236 L6.00000001,1.00200011 C5.90843923,0.975942704 5.81347526,0.962646758 5.71800001,0.962517171 L5.7175,0.962998664 Z M6.99999999,1.88458836 L6.99999999,3.85103155 C6.99999999,4.11695628 7.22385762,4.33253087 7.49999999,4.33253087 L9.54299999,4.33253087 L6.99999999,1.88506985 L6.99999999,1.88458836 Z M2.50000001,5.77751031 L5.00000001,5.77751031 C5.33333334,5.77751031 5.50000001,5.93801008 5.50000001,6.25900961 L5.50000001,6.25900961 C5.50000001,6.58000916 5.33333334,6.74050893 5.00000001,6.74050893 L2.50000001,6.74050893 C2.16666666,6.74050893 2.00000001,6.58000916 2.00000001,6.25900961 L2.00000001,6.25900961 C2.00000001,5.93801007 2.16666667,5.77751031 2.50000001,5.77751031 L2.50000001,5.77751031 Z M2.50000001,8.66650618 L8.50000001,8.66650618 C8.83333333,8.66650618 9.00000001,8.82700595 9.00000001,9.1480055 L9.00000001,9.1480055 C9.00000001,9.46900505 8.83333333,9.62950481 8.50000001,9.62950481 L2.50000001,9.62950481 C2.16666666,9.62950481 2.00000001,9.46900504 2.00000001,9.1480055 L2.00000001,9.1480055 C2.00000001,8.82700595 2.16666667,8.66650618 2.50000001,8.66650618 Z" id="path-1"></path>
    </defs>
    <g id="其他" stroke="none" stroke-width="1" fill="none" fill-rule="evenodd">
        <g id="icon" transform="translate(-35.000000, -46.000000)">
            <g id="编组" transform="translate(33.000000, 44.000000)">
                <g id="填充色/中性色-B7备份" transform="translate(2.000000, 2.000000)">
                    <mask id="mask-2" fill="white">
                        <use xlink:href="#path-1"></use>
                    </mask>
                    <use id="蒙版" fill="#000000" fill-rule="nonzero" xlink:href="#path-1"></use>
                    <g id="编组" mask="url(#mask-2)">
                        <g transform="translate(-2.000000, -0.962963)" id="填充色/中性色-B7备份">
                            <rect id="矩形" fill="#969799" x="0" y="0" width="16" height="15.4074074"></rect>
                        </g>
                    </g>
                </g>
            </g>
        </g>
    </g>
</svg>