<?xml version="1.0" encoding="UTF-8"?>
<svg width="14px" height="15px" viewBox="0 0 14 15" version="1.1" xmlns="http://www.w3.org/2000/svg" xmlns:xlink="http://www.w3.org/1999/xlink">
    <title>icon/interface/图层</title>
    <g id="核查" stroke="none" stroke-width="1" fill="none" fill-rule="evenodd">
        <g id="02-02核查_地图全屏" transform="translate(-337.000000, -89.000000)" fill="#323233" fill-rule="nonzero">
            <g id="编组" transform="translate(336.000000, 89.000000)">
                <rect id="矩形" opacity="0" x="0" y="0" width="16" height="16"></rect>
                <path d="M14.2629688,0.980625 L4.68546875,0.980625 C4.2784375,0.980625 3.94859375,1.31046875 3.94859375,1.71734375 C3.94859375,2.12421875 4.27828125,2.45390625 4.68546875,2.45390625 L13.5260938,2.45390625 L13.5260938,11.2946875 C13.5260938,11.7015625 13.8557812,12.0314062 14.2629687,12.0314062 C14.6695312,12.0314062 14.999375,11.7014062 14.999375,11.2946875 L14.999375,1.7175 C14.999375,1.31046875 14.6695312,0.980625 14.2629687,0.980625 L14.2629688,0.980625 Z M11.3159375,3.9275 L1.7384375,3.9275 C1.33140625,3.9275 1.0015625,4.25734375 1.0015625,4.66421875 L1.0015625,14.2415625 C1.0015625,14.6484375 1.33125,14.9782812 1.7384375,14.9782812 L11.3159375,14.9782812 C11.7228125,14.9782812 12.0528125,14.6484375 12.0528125,14.2415625 L12.0528125,4.664375 C12.0528125,4.25734375 11.7228125,3.9275 11.3159375,3.9275 Z M10.5790625,12.768125 C10.5790625,13.175 10.2492188,13.5048437 9.8421875,13.5048437 L3.211875,13.5048437 C2.80515625,13.5048437 2.47546875,13.175 2.47546875,12.768125 L2.47546875,6.13765625 C2.47546875,5.73078125 2.80515625,5.4009375 3.211875,5.4009375 L9.8421875,5.4009375 C10.2490625,5.4009375 10.5790625,5.73078125 10.5790625,6.13765625 L10.5790625,12.768125 L10.5790625,12.768125 Z" id="形状"></path>
            </g>
        </g>
    </g>
</svg>