<?xml version="1.0" encoding="UTF-8"?>
<svg width="14px" height="16px" viewBox="0 0 14 16" version="1.1" xmlns="http://www.w3.org/2000/svg" xmlns:xlink="http://www.w3.org/1999/xlink">
    <title>icon/interface/消息通知_black</title>
    <g id="核查" stroke="none" stroke-width="1" fill="none" fill-rule="evenodd">
        <g id="02-02核查_地图全屏" transform="translate(-337.000000, -52.000000)" fill-rule="nonzero">
            <g id="编组" transform="translate(336.000000, 52.000000)">
                <rect id="矩形" fill="#000000" opacity="0" x="0" y="0" width="16" height="16"></rect>
                <path d="M14.375,11.5265625 L13.150625,11.5265625 L13.150625,7.6284375 C13.150625,4.7690625 11.3634375,2.3940625 8.99625,1.8628125 L8.99625,1.845 C8.99625,1.29271525 8.54853475,0.845 7.99625,0.845 C7.44396525,0.845 6.99625,1.29271525 6.99625,1.845 L6.99625,1.8628125 C4.6290625,2.3940625 2.841875,4.7690625 2.841875,7.6284375 L2.841875,11.5265625 L1.625,11.5265625 C1.27982203,11.5265625 1,11.8063845 1,12.1515625 C1,12.4967405 1.27982203,12.7765625 1.625,12.7765625 L5.50296875,12.7765625 C5.56792959,14.1083434 6.66663571,15.1547637 8,15.1547637 C9.33336429,15.1547637 10.4320704,14.1083434 10.4970312,12.7765625 L14.375,12.7765625 C14.720178,12.7765625 15,12.4967405 15,12.1515625 C15,11.8063845 14.720178,11.5265625 14.375,11.5265625 Z M8,13.905 C7.35673151,13.905 6.81849536,13.4167819 6.7559375,12.7765625 L9.2440625,12.7765625 C9.18150464,13.4167819 8.64326849,13.905 8,13.905 L8,13.905 Z M11.900625,11.5265625 L4.09375,11.5265625 L4.09375,7.62703125 C4.09375,5.11421875 5.84078125,3.078125 7.99671875,3.078125 C10.1526562,3.078125 11.900625,5.11421875 11.900625,7.62703125 L11.900625,11.5265625 Z" id="形状" fill="#323233"></path>
            </g>
        </g>
    </g>
</svg>