<?xml version="1.0" encoding="UTF-8"?>
<svg width="36px" height="36px" viewBox="0 0 36 36" version="1.1" xmlns="http://www.w3.org/2000/svg" xmlns:xlink="http://www.w3.org/1999/xlink">
    <title>督查icon/小型水库</title>
    <g id="督查icon/小型水库" stroke="none" stroke-width="1" fill="none" fill-rule="evenodd" fill-opacity="0.732326267">
        <path d="M30.1,21.3 C29.9,21.5 29.8,21.8 29.8,22.1 C29.8,22.2 29.1,23.2 25.8,23.9 C25.4,24 25.1,24.3 25,24.6 C24.9,25 25,25.4 25.2,25.6 C25.5,25.9 25.9,26 26.2,25.9 C30,25 31.9,23.7 31.9,22 C31.9,21.7 31.8,21.4 31.6,21.2 C31.4,21 31.1,20.9 30.8,20.9 C30.6,21 30.3,21.1 30.1,21.3 L30.1,21.3 Z M18,17.6 C25.2,17.6 33,16.1 33,12.7 C33,12.1 32.5,11.6 31.9,11.6 C31.3,11.6 30.8,12.1 30.8,12.7 C30.8,12.8 30.2,13.6 27.6,14.4 C25.1,15.1 21.7,15.5 18.1,15.5 C14.5,15.5 11.1,15.1 8.60000001,14.4 C5.90000002,13.7 5.4,12.9 5.4,12.7 C5.4,12.1 4.89999999,11.6 4.29999999,11.6 C3.5,11.5 3,12 3,12.6 C3,16 10.8,17.6 18,17.6 Z M28.7,27.4 C27.2,27.4 26.2,28.3 25.6,29.3 C24.7,28.1 23.6,27.4 22.2,27.4 C20.7,27.4 19.5,28 18.7,29.2 C18.1,28.2 17.1,27.4 15.6,27.4 C14.1,27.4 12.9,28 12.1,29.2 L11.8,28.9 C11.2,28.2 10.2,27.5 8.5,27.5 C5.80000001,27.5 4.7,29.9 4.59999999,31.2 C4.49999998,31.6 4.89999999,32 5.29999999,32.1 C5.7,32.2 6.1,31.9 6.20000001,31.4 C6.20000001,31.4 6.30000002,30.8 6.60000002,30.2 C7.00000002,29.4 7.70000003,29.1 8.5,29.1 C10.6,29.1 11.3,30.9 11.3,31.4 C11.3,31.8 11.6,32.1 12,32.2 C12.4,32.2 12.8,32 12.9,31.6 C13,30.9 13.6,29.2 15.6,29.2 C17.4,29.2 17.9,31.5 17.9,31.6 C18,32 18.3,32.2 18.7,32.2 C19.1,32.2 19.4,31.9 19.5,31.6 C19.5,31.5 20,29.2 22.2,29.2 C24.2,29.2 24.9,31.6 24.9,31.7 C25,32.1 25.3,32.3 25.7,32.3 C26.1,32.3 26.4,32 26.5,31.7 C26.5,31.6 27,29.3 28.7,29.3 C29.5,29.3 30.2,29.6 30.6,30.3 C31,30.9 31.1,31.5 31.1,31.7 C31.1,32.1 31.5,32.4 32,32.4 C32.4,32.4 32.8,32 32.7,31.5 C32.7,30.1 31.7,27.4 28.7,27.4 L28.7,27.4 Z M23,26 L23,19 L20,19 L20,26 L23,26 Z M10.9,26 C11.5,26.1 12.1,25.6 12.1,25 C12.2,24.4 11.7,23.9 11.1,23.8 C6.4,23 5.29999999,21.8 5.29999999,21.6 C5.29999999,21 4.79999998,20.5 4.20000002,20.5 C3.5,20.5 3,21 3,21.6 C3,24.2 7.20000001,25.4 10.7,26 L10.9,26 Z M17,26 L17,19 L14,19 L14,26 L17,26 Z M10.7,14.2 L26.8,14.2 L26.8,10.5 L28.1,10.5 L18.3,3 L9.30000002,10.5 L10.7,10.5 L10.7,14.2 Z M18.3,5.49999998 L24.2,9.89999997 L13,9.89999997 L18.3,5.49999998 Z" id="形状" fill="#FFFFFF" fill-rule="nonzero"></path>
    </g>
</svg>