<?xml version="1.0" encoding="UTF-8"?>
<svg width="554px" height="45px" viewBox="0 0 554 45" version="1.1" xmlns="http://www.w3.org/2000/svg" xmlns:xlink="http://www.w3.org/1999/xlink">
    <title>水利信息监督管理平台</title>
    <g id="登陆" stroke="none" stroke-width="1" fill="none" fill-rule="evenodd">
        <g transform="translate(-35.000000, -212.000000)" fill="#FFFFFF" fill-rule="nonzero" id="编组-6">
            <g>
                <path d="M59.14,256 C60.06,256 60.92,255.83 61.72,255.49 C62.52,255.15 63.22,254.69 63.82,254.11 C64.42,253.53 64.89,252.84 65.23,252.04 C65.57,251.24 65.74,250.38 65.74,249.46 L65.74,249.46 L65.74,212.8 L57.46,212.8 L57.46,249.04 C57.46,249.56 57.28,250 56.92,250.36 C56.56,250.72 56.12,250.9 55.6,250.9 L55.6,250.9 L53.02,250.9 L50.74,256 L59.14,256 Z M44.2,252.58 L54.64,217.42 L35.92,217.42 L35.92,223.36 L44.26,223.36 L35.56,252.58 L44.2,252.58 Z M87.58,252.58 L78.88,223.36 L87.22,223.36 L87.22,217.42 L68.5,217.42 L78.94,252.58 L87.58,252.58 Z M110.32,256 L110.32,227.56 L122.32,227.56 L122.32,222.46 L110.32,222.46 L110.32,218.74 L122.32,217.78 L122.32,212.68 L91.12,215.08 L91.12,220.18 L103.12,219.28 L103.12,222.46 L91.12,222.46 L91.12,227.56 L103.12,227.56 L103.12,256 L110.32,256 Z M136.6,256.06 C137.48,256.06 138.32,255.89 139.12,255.55 C139.92,255.21 140.62,254.74 141.22,254.14 C141.82,253.54 142.3,252.84 142.66,252.04 C143.02,251.24 143.2,250.38 143.2,249.46 L143.2,249.46 L143.2,212.68 L136.3,212.68 L136.3,248.2 C136.3,248.76 136.12,249.22 135.76,249.58 C135.4,249.94 134.94,250.12 134.38,250.12 L134.38,250.12 L133.9,250.12 L131.68,256.06 L136.6,256.06 Z M133,247.78 L133,215.56 L126.1,215.56 L126.1,247.78 L133,247.78 Z M96.94,256 L99.52,229.54 L93.04,229.54 L90.4,256 L96.94,256 Z M122.32,256 L119.74,229.54 L113.2,229.54 L115.78,256 L122.32,256 Z M160,256.06 L160,223.18 L157.48,223.18 L162.16,212.68 L153.1,212.68 L145.54,229.66 L151.3,229.66 L151.3,256.06 L160,256.06 Z M198.34,221.92 L198.34,216.16 L185.32,216.16 L184.54,212.8 L175.48,212.8 L176.26,216.16 L162.28,216.16 L162.28,221.92 L198.34,221.92 Z M198.34,229.24 L198.34,223.48 L162.28,223.48 L162.28,229.24 L198.34,229.24 Z M198.34,236.74 L198.34,231.04 L162.28,231.04 L162.28,236.74 L198.34,236.74 Z M192.76,255.94 C193.52,255.94 194.25,255.79 194.95,255.49 C195.65,255.19 196.25,254.79 196.75,254.29 C197.25,253.79 197.65,253.2 197.95,252.52 C198.25,251.84 198.4,251.1 198.4,250.3 L198.4,250.3 L198.4,238.6 L162.22,238.6 L162.22,255.94 L192.76,255.94 Z M189.82,251.38 L169.84,251.38 L169.84,243.16 L190.78,243.16 L190.78,250.48 C190.78,250.72 190.69,250.93 190.51,251.11 C190.33,251.29 190.1,251.38 189.82,251.38 L189.82,251.38 Z M248.26,238.3 C249.06,238.3 249.78,238.14 250.42,237.82 C251.1,237.58 251.72,237.18 252.28,236.62 C252.76,236.06 253.14,235.46 253.42,234.82 C253.74,234.22 253.9,233.48 253.9,232.6 L253.9,232.6 L253.9,215.86 L221.68,215.86 L222.88,213.1 L214.48,213.1 L213.28,215.86 L205.48,215.86 L205.48,238.3 L248.26,238.3 Z M245.86,221.62 L213.52,221.62 L213.52,219.76 L245.86,219.76 L245.86,221.62 Z M245.86,227.62 L213.52,227.62 L213.52,225.52 L245.86,225.52 L245.86,227.62 Z M244.18,233.74 L213.52,233.74 L213.52,231.52 L245.86,231.52 L245.86,232.06 C245.86,232.54 245.7,232.94 245.38,233.26 C245.06,233.58 244.66,233.74 244.18,233.74 L244.18,233.74 Z M244.36,255.7 L245.98,250.78 L224.62,250.78 C224.06,250.78 223.62,250.6 223.3,250.24 C222.9,249.92 222.7,249.48 222.7,248.92 L222.7,248.92 L222.7,239.98 L214.36,239.98 L214.36,249.1 C214.36,249.94 214.54,250.82 214.9,251.74 C215.18,252.46 215.64,253.14 216.28,253.78 C216.96,254.42 217.68,254.9 218.44,255.22 C219.24,255.54 220.1,255.7 221.02,255.7 L221.02,255.7 L244.36,255.7 Z M237.4,249.7 L235.36,240.04 L227.68,240.04 L229.72,249.7 L237.4,249.7 Z M256.06,255.7 L253.36,240.16 L245.44,240.16 L248.2,255.7 L256.06,255.7 Z M210.64,255.7 L213.52,240.46 L205.96,240.46 L203.08,255.7 L210.64,255.7 Z M283.24,235.42 L283.24,212.8 L275.14,212.8 L275.14,235.42 L283.24,235.42 Z M294.04,235.42 L297.04,223.18 L299.74,223.18 L303.88,235.42 L312.1,235.42 L307.96,223.18 L313.36,223.18 L313.36,217.42 L298.42,217.42 L299.5,212.98 L290.5,212.98 L285.04,235.42 L294.04,235.42 Z M271.78,233.5 L271.78,215.08 L263.74,215.08 L263.74,233.5 L271.78,233.5 Z M313.54,256 L313.54,250.72 L311.74,250.72 L311.74,242.8 C311.74,242.04 311.59,241.31 311.29,240.61 C310.99,239.91 310.59,239.31 310.09,238.81 C309.59,238.31 308.99,237.91 308.29,237.61 C307.59,237.31 306.86,237.16 306.1,237.16 L306.1,237.16 L262.6,237.16 L262.6,250.72 L260.8,250.72 L260.8,256 L313.54,256 Z M303.46,250.72 L298.18,250.72 L298.18,242.44 L301.54,242.44 C302.1,242.44 302.56,242.62 302.92,242.98 C303.28,243.34 303.46,243.78 303.46,244.3 L303.46,244.3 L303.46,250.72 Z M289.9,250.72 L284.5,250.72 L284.5,242.44 L289.9,242.44 L289.9,250.72 Z M276.16,250.72 L270.94,250.72 L270.94,242.44 L276.16,242.44 L276.16,250.72 Z M334.06,235.12 L334.06,224.86 L343.84,224.86 L343.84,220.72 L334.06,220.72 L334.06,218.98 L340.78,218.98 L340.78,214.78 L334.06,214.78 L334.06,212.8 L325.84,212.8 L325.84,220.72 L316.06,220.72 L316.06,224.86 L325.84,224.86 L325.84,235.12 L334.06,235.12 Z M368.74,235.12 L368.74,229.3 C366.54,229.3 364.58,229.12 362.86,228.76 C364.5,227.16 365.77,225.48 366.67,223.72 C367.57,221.96 368.26,220.34 368.74,218.86 L368.74,218.86 L368.74,214.84 L344.56,214.84 L344.56,218.86 L361.06,218.86 C360.42,221.86 358.96,224.24 356.68,226 C354.88,224.64 353.6,222.88 352.84,220.72 L352.84,220.72 L345.28,220.72 C345.8,222 346.47,223.34 347.29,224.74 C348.11,226.14 349.18,227.48 350.5,228.76 C348.74,229.12 346.76,229.3 344.56,229.3 L344.56,229.3 L344.56,235.12 C347.08,235.12 349.33,234.91 351.31,234.49 C353.29,234.07 355.08,233.52 356.68,232.84 C358.24,233.52 360.01,234.07 361.99,234.49 C363.97,234.91 366.22,235.12 368.74,235.12 L368.74,235.12 Z M343.84,234.22 L341.86,227.14 L334.84,227.14 L336.88,234.22 L343.84,234.22 Z M323.08,234.22 L325.06,227.14 L318.1,227.14 L316.06,234.22 L323.08,234.22 Z M358.78,256 C359.66,256 360.48,255.83 361.24,255.49 C362,255.15 362.66,254.7 363.22,254.14 C363.78,253.58 364.23,252.91 364.57,252.13 C364.91,251.35 365.08,250.52 365.08,249.64 L365.08,249.64 L365.08,236.8 L319.72,236.8 L319.72,256 L358.78,256 Z M356.92,242.2 L327.94,242.2 L327.94,240.82 L356.92,240.82 L356.92,242.2 Z M356.92,247.12 L327.94,247.12 L327.94,245.68 L356.92,245.68 L356.92,247.12 Z M355.3,252.1 L327.94,252.1 L327.94,250.54 L356.92,250.54 C356.88,250.98 356.71,251.35 356.41,251.65 C356.11,251.95 355.74,252.1 355.3,252.1 L355.3,252.1 Z M379.54,221.44 L380.86,218.56 L383.74,218.56 L385.36,221.44 L392.32,221.44 L390.76,218.56 L396.34,218.56 L396.34,214.48 L382.78,214.48 L383.56,212.8 L375.34,212.8 L371.26,221.44 L379.54,221.44 Z M406.24,221.44 L407.56,218.56 L410.44,218.56 L412.06,221.44 L419.08,221.44 L417.46,218.56 L423.04,218.56 L423.04,214.48 L409.48,214.48 L410.32,212.8 L402.04,212.8 L397.96,221.44 L406.24,221.44 Z M415.06,256 C415.7,256 416.31,255.88 416.89,255.64 C417.47,255.4 417.97,255.07 418.39,254.65 C418.81,254.23 419.14,253.74 419.38,253.18 C419.62,252.62 419.74,252.02 419.74,251.38 L419.74,251.38 L419.74,244.36 L384.04,244.36 L384.04,242.26 L415.06,242.26 C416.34,242.26 417.44,241.8 418.36,240.88 C419.28,239.96 419.74,238.86 419.74,237.58 L419.74,237.58 L419.74,231.7 L423.94,231.7 L423.94,230.62 C423.94,229.74 423.77,228.91 423.43,228.13 C423.09,227.35 422.64,226.67 422.08,226.09 C421.52,225.51 420.85,225.05 420.07,224.71 C419.29,224.37 418.46,224.2 417.58,224.2 L417.58,224.2 L401.68,224.2 L400.78,222.58 L391.72,222.58 L392.62,224.2 L371.26,224.2 L371.26,231.7 L375.88,231.7 L375.88,256 L415.06,256 Z M415.72,230.56 L379.48,230.56 L379.48,228.22 L414.16,228.22 C414.6,228.22 414.97,228.37 415.27,228.67 C415.57,228.97 415.72,229.34 415.72,229.78 L415.72,229.78 L415.72,230.56 Z M410.62,237.82 L384.04,237.82 L384.04,235 L411.58,235 L411.58,236.86 C411.58,237.5 411.26,237.82 410.62,237.82 L410.62,237.82 Z M410.62,251.62 L384.04,251.62 L384.04,248.86 L411.58,248.86 L411.58,250.66 C411.58,251.3 411.26,251.62 410.62,251.62 L410.62,251.62 Z M479.02,256.12 L479.02,251.2 L467.56,251.2 L467.56,245.68 L478.54,245.68 L478.54,240.64 L467.56,240.64 L467.56,236.74 L472.24,236.74 C473.16,236.74 474.02,236.57 474.82,236.23 C475.62,235.89 476.32,235.42 476.92,234.82 C477.52,234.22 477.99,233.52 478.33,232.72 C478.67,231.92 478.84,231.06 478.84,230.14 L478.84,230.14 L478.84,212.62 L447.94,212.62 L447.94,236.74 L459.22,236.74 L459.22,240.64 L448.18,240.64 L448.18,245.68 L459.22,245.68 L459.22,251.2 L447.76,251.2 L447.76,256.12 L479.02,256.12 Z M445.78,256.18 L445.78,250.24 L440.32,250.24 L440.32,235.66 L445.24,235.66 L445.24,229.72 L440.32,229.72 L440.32,218.68 L445.78,218.68 L445.78,212.74 L426.52,212.74 L426.52,218.68 L431.98,218.68 L431.98,229.72 L427.12,229.72 L427.12,235.66 L431.98,235.66 L431.98,250.24 L426.52,250.24 L426.52,256.18 L445.78,256.18 Z M471.16,222.1 L467.56,222.1 L467.56,217.54 L471.16,217.54 L471.16,222.1 Z M459.22,222.1 L455.56,222.1 L455.56,217.54 L459.22,217.54 L459.22,222.1 Z M469.3,231.82 L467.56,231.82 L467.56,227.02 L471.16,227.02 L471.16,229.9 C471.16,230.46 470.98,230.92 470.62,231.28 C470.26,231.64 469.82,231.82 469.3,231.82 L469.3,231.82 Z M459.22,231.82 L455.56,231.82 L455.56,227.02 L459.22,227.02 L459.22,231.82 Z M512.2,255.88 L512.2,244.84 L534.34,244.84 L534.34,238.96 L512.2,238.96 L512.2,218.8 L532.36,218.8 L532.36,212.92 L483.64,212.92 L483.64,218.8 L503.86,218.8 L503.86,238.96 L481.66,238.96 L481.66,244.84 L503.86,244.84 L503.86,255.88 L512.2,255.88 Z M525.82,236.62 L529.3,221.62 L522.1,221.62 L518.62,236.62 L525.82,236.62 Z M497.98,236.62 L494.74,221.62 L487.54,221.62 L490.78,236.62 L497.98,236.62 Z M588.94,232.54 L578.74,215.5 L570.7,215.5 L576.58,225.28 L549.7,225.28 L557.5,213.1 L549.04,213.1 L537.46,231.16 L580.12,231.16 L580.96,232.54 L588.94,232.54 Z M581.68,255.64 C582.44,255.64 583.17,255.49 583.87,255.19 C584.57,254.89 585.17,254.49 585.67,253.99 C586.17,253.49 586.57,252.9 586.87,252.22 C587.17,251.54 587.32,250.8 587.32,250 L587.32,250 L587.32,234.04 L538.42,234.04 L538.42,255.64 L581.68,255.64 Z M576.7,249.82 L547.18,249.82 L547.18,239.92 L578.56,239.92 L578.56,247.9 C578.56,248.46 578.38,248.92 578.02,249.28 C577.66,249.64 577.22,249.82 576.7,249.82 L576.7,249.82 Z" id="水利信息监督管理平台"></path>
            </g>
        </g>
    </g>
</svg>