<?xml version="1.0" encoding="UTF-8"?>
<svg width="36px" height="36px" viewBox="0 0 36 36" version="1.1" xmlns="http://www.w3.org/2000/svg" xmlns:xlink="http://www.w3.org/1999/xlink">
    <title>督查icon/水毁工程</title>
    <g id="督查icon/水毁工程" stroke="none" stroke-width="1" fill="none" fill-rule="evenodd" fill-opacity="0.732326267">
        <path d="M29.5384615,21.4615385 C29.5384615,27.8076923 24.3461538,33 18,33 C11.6538462,33 6.46153846,27.8076923 6.46153846,21.4615385 L6.46153846,21.4615385 Z M21.4615385,12.2307692 L23.7692308,12.2307692 L23.7692308,5.53846154 C27.9230769,7.61538462 30.6923077,11.8846154 30.6923077,16.8461538 L30.6923077,16.8461538 L33,16.8461538 L33,19.1538462 L3,19.1538462 L3,16.8461538 L5.30769231,16.8461538 C5.30769231,11.8846154 8.07692308,7.61538462 12.2307692,5.53846154 L12.2307692,5.53846154 L12.2307692,12.2307692 L14.5384615,12.2307692 L14.5384615,3.46153846 C15.6923077,3.11538462 16.8461538,3 18,3 C19.1538462,3 20.3076923,3.11538462 21.4615385,3.46153846 L21.4615385,12.2307692 Z" id="形状结合" fill="#FFFFFF" fill-rule="nonzero"></path>
    </g>
</svg>