<?xml version="1.0" encoding="UTF-8"?>
<svg width="36px" height="36px" viewBox="0 0 36 36" version="1.1" xmlns="http://www.w3.org/2000/svg" xmlns:xlink="http://www.w3.org/1999/xlink">
    <title>督查icon/河湖</title>
    <g id="督查icon/河湖" stroke="none" stroke-width="1" fill="none" fill-rule="evenodd" fill-opacity="0.732326267">
        <path d="M12.0124438,5.73900879 C16.3936888,5.73900879 19.7299775,7.89169238 19.7747589,10.7415088 C19.7932345,11.7666126 19.4240672,12.7592004 18.7447575,13.5108955 C17.9349385,14.4225264 17.8080714,15.0430527 17.8752298,15.1847959 C17.9239595,15.2678584 18.3477472,15.8523769 20.8159627,15.924041 C27.1825195,16.111748 32.280268,19.3944121 32.9333381,23.7265703 C33.2079171,25.6497079 32.625546,27.5976526 31.3472793,29.0317012 C29.2723768,31.5099834 25.5367521,33 21.3645426,33 C17.1848281,33 13.3484658,31.5138066 11.0981623,29.0202031 C9.69498193,27.4650781 9.02325984,25.6609326 9.16132915,23.7993535 C9.29939846,21.9377744 10.325675,20.5856494 11.6504672,19.0419941 C12.5685287,17.9771504 12.7700316,17.260873 12.6655691,16.9467725 C12.5274722,16.5637402 11.7848392,16.2534912 11.3743285,16.180708 C8.48960706,16.1577119 5.98923918,15.2077637 4.65694208,13.6258193 C3.9226582,12.804408 3.5869594,11.6877436 3.74263299,10.5844727 C4.16062099,7.82273242 7.71709216,5.73900879 12.0124438,5.73900879 Z M7.57529796,25.913748 L9.57928956,30.7898828 L8.31420606,30.7898828 L8.31420606,32.3220117 L7.0714719,32.3220117 L7.0714719,30.7898545 L5.8063884,30.7898545 L7.57529796,25.913748 Z M27.8626017,21.8531961 L27.7391249,21.8638175 C27.4093938,21.9149344 27.1312787,22.1427224 27.0095428,22.4613761 C26.887807,22.7800298 26.940945,23.141138 27.1489403,23.4086748 C27.4193513,23.728812 27.5747652,24.134362 27.5893053,24.5577998 C27.5893053,26.1627402 25.1075894,27.5723271 22.2788517,27.5723271 C21.7635915,27.5723271 21.3458905,28.0010569 21.3458905,28.5299219 C21.3458905,29.0587868 21.7635915,29.4875166 22.2788517,29.4875166 C26.3017896,29.4875166 29.4515027,27.3195117 29.4552276,24.5692695 C29.4434853,23.7077316 29.14451,22.8763299 28.6081045,22.2135576 C28.452108,22.012905 28.226779,21.8877493 27.984759,21.8592771 L27.8626017,21.8531961 Z M5.18314508,17.1268047 L7.64990616,23.1328633 L6.0899768,23.1328633 L6.0899768,25.0289082 L4.55992936,25.0289082 L4.55992936,23.1328633 L3,23.1328633 L5.18314508,17.1268047 Z M28.9252997,8.68075293 L31.3958132,14.6906348 L29.8358839,14.6906348 L29.8358839,16.5828848 L28.3020564,16.5828848 L28.3020564,14.6906631 L26.7458795,14.6906631 L28.9252997,8.68075293 Z M22.1445073,9.04846387 L23.7827973,13.0397588 L22.7453461,13.0397588 L22.7453461,14.2999561 L21.7302442,14.2999561 L21.7302442,13.0397588 L20.6927929,13.0397588 L22.1445073,9.04846387 Z M25.3688285,4 L27.1638675,8.37050391 L26.0331008,8.37050391 L26.0331008,9.74559668 L24.9172889,9.74559668 L24.9172889,8.37050391 L23.7827973,8.37050391 L25.3688285,4 Z" id="形状结合" fill="#FFFFFF" fill-rule="nonzero"></path>
    </g>
</svg>